<svg width="36" height="36" fill="none" xmlns="http://www.w3.org/2000/svg"><path d="M20.813 10.684a.703.703 0 1 0 0 1.407.703.703 0 0 0 0-1.406ZM16.549 24.417a.704.704 0 1 0-.996-.995.704.704 0 0 0 .996.995Z" fill="#332208"/><path d="M8.1 35.792a.703.703 0 0 0 .991.006l3.41-3.358c.579-.578.755-1.436.5-2.18l.733-.708a2.097 2.097 0 0 1 1.464-.591h9.348a6.296 6.296 0 0 0 4.414-1.793c.049-.047-.371.447 6.377-7.616 1.001-1.183.851-2.961-.334-3.963a2.82 2.82 0 0 0-3.946.314l-4.149 4.263a2.826 2.826 0 0 0-2.186-1.046H16.88a9.075 9.075 0 0 0-3.521-.703c-3.385 0-6.342 1.562-7.93 4.494a2.1 2.1 0 0 0-1.88.583L.205 26.848a.703.703 0 0 0 0 .991l7.894 7.953Zm5.26-15.97a7.68 7.68 0 0 1 3.095.645c.09.039.185.059.282.059h7.985a1.41 1.41 0 0 1 1.406 1.405c0 .776-.63 1.406-1.406 1.406h-5.737a.703.703 0 1 0 0 1.406h5.737a2.815 2.815 0 0 0 2.788-3.179c4.013-4.125 4.58-4.704 4.604-4.733a1.411 1.411 0 0 1 1.982-.168c.593.501.668 1.39.165 1.985l-6.307 7.537a4.897 4.897 0 0 1-3.408 1.37h-9.348c-.915 0-1.783.35-2.44.986l-.598.576-5.509-5.507c1.288-2.414 3.704-3.787 6.709-3.787Zm-8.815 4.666a.701.701 0 0 1 .871-.1c.107.066 6.121 6.093 6.159 6.143a.706.706 0 0 1-.065.912l-2.906 2.862-6.91-6.96 2.851-2.857ZM10.97 14.902h16.875c1.163 0 2.11-.946 2.11-2.109V2.11A2.111 2.111 0 0 0 27.844 0H10.969C9.806 0 8.86.946 8.86 2.109v10.684c0 1.163.947 2.11 2.11 2.11Zm17.578-9.279H10.266V4.218h18.282v1.405Zm-.703 7.873H10.969a.704.704 0 0 1-.703-.703V7.03h18.282v5.764a.704.704 0 0 1-.703.703ZM10.969 1.406h16.876c.387 0 .703.315.703.703v.703H10.266v-.703c0-.388.315-.703.703-.703Z" fill="#332208"/><path d="M26.438 10.684h-2.812a.703.703 0 0 0 0 1.407h2.812a.703.703 0 1 0 0-1.406Z" fill="#332208"/></svg>